<?xml version="1.0" encoding="utf-8"?>
<!-- Generator: Adobe Illustrator 24.3.0, SVG Export Plug-In . SVG Version: 6.00 Build 0)  -->
<svg version="1.1" id="Layer_1" xmlns="http://www.w3.org/2000/svg" xmlns:xlink="http://www.w3.org/1999/xlink" x="0px" y="0px"
	 viewBox="0 0 1200 1200" style="enable-background:new 0 0 1200 1200;" xml:space="preserve">
<style type="text/css">
	.st0{fill:#2D2D2D;}
	.st1{fill:#F3F3F3;}
	.st2{clip-path:url(#SVGID_2_);}
	.st3{clip-path:url(#SVGID_4_);}
	.st4{clip-path:url(#SVGID_6_);}
	.st5{clip-path:url(#SVGID_8_);}
	.st6{clip-path:url(#SVGID_10_);}
	.st7{clip-path:url(#SVGID_12_);}
	.st8{clip-path:url(#SVGID_14_);}
	.st9{clip-path:url(#SVGID_16_);}
	.st10{clip-path:url(#SVGID_18_);}
	.st11{clip-path:url(#SVGID_20_);}
	.st12{clip-path:url(#SVGID_22_);}
	.st13{clip-path:url(#SVGID_24_);}
	.st14{clip-path:url(#SVGID_26_);}
	.st15{clip-path:url(#SVGID_28_);}
	.st16{clip-path:url(#SVGID_30_);}
	.st17{clip-path:url(#SVGID_32_);}
</style>
<g>
	<g>
		<defs>
			<polygon id="SVGID_1_" points="1025.67,1025.67 174.33,1025.67 600,600 			"/>
		</defs>
		<clipPath id="SVGID_2_">
			<use xlink:href="#SVGID_1_"  style="overflow:visible;"/>
		</clipPath>
		<g class="st2">
			<g>
				<polygon class="st1" points="611.22,-3.29 599.99,600 588.77,-3.29 				"/>
				<path class="st1" d="M601.35,600.03h-2.72L587.39-4.66h25.2l-0.02,1.39L601.35,600.03z M590.14-1.94l9.85,529.05l9.84-529.05
					H590.14z"/>
			</g>
			<g>
				<polygon class="st1" points="579.63,-3.05 599.99,600 557.21,-1.88 				"/>
				<path class="st1" d="M598.64,600.1L555.76-3.16l25.18-1.33l0.05,1.39l20.36,603.06L598.64,600.1z M558.66-0.6l37.52,527.82
					L578.32-1.63L558.66-0.6z"/>
			</g>
			<g>
				<polygon class="st1" points="548.09,-1.16 599.99,600 525.77,1.19 				"/>
				<path class="st1" d="M598.65,600.17L524.25-0.01l25.08-2.64l0.11,1.38l51.9,601.16L598.65,600.17z M527.29,2.39l65.09,525.11
					L546.85,0.33L527.29,2.39z"/>
			</g>
			<g>
				<polygon class="st1" points="516.7,2.38 599.99,600 494.53,5.89 				"/>
				<path class="st1" d="M598.66,600.24L492.95,4.77l24.91-3.95l0.19,1.37l83.29,597.62L598.66,600.24z M496.11,7.01l92.48,521
					L515.54,3.93L496.11,7.01z"/>
			</g>
			<g>
				<polygon class="st1" points="485.54,7.56 599.99,600 463.58,12.22 				"/>
				<path class="st1" d="M598.67,600.31L461.95,11.18l24.66-5.24l0.26,1.36l114.45,592.45L598.67,600.31z M465.21,13.26
					l119.64,515.46L484.47,9.17L465.21,13.26z"/>
			</g>
			<g>
				<polygon class="st1" points="454.69,14.36 599.99,600 433.01,20.17 				"/>
				<path class="st1" d="M598.69,600.38L431.32,19.21l24.35-6.52l0.34,1.34l145.3,585.64L598.69,600.38z M434.7,21.12l146.43,508.47
					L453.71,16.03L434.7,21.12z"/>
			</g>
			<g>
				<polygon class="st1" points="424.24,22.77 599.99,600 402.89,29.7 				"/>
				<path class="st1" d="M598.71,600.44L401.16,28.83l23.97-7.79l0.41,1.32L601.29,599.6L598.71,600.44z M404.62,30.56l172.85,500.1
					L423.34,24.47L404.62,30.56z"/>
			</g>
			<g>
				<polygon class="st1" points="394.27,32.75 599.99,600 373.31,40.8 				"/>
				<path class="st1" d="M598.74,600.51L371.54,40.04l23.53-9.05l0.47,1.31l205.73,567.25L598.74,600.51z M375.09,41.57
					l198.79,490.38L393.46,34.52L375.09,41.57z"/>
			</g>
			<g>
				<polygon class="st1" points="364.87,44.3 599.99,600 344.36,53.43 				"/>
				<path class="st1" d="M598.77,600.57L342.55,52.75l23.02-10.25l0.54,1.27l235.13,555.7L598.77,600.57z M346.17,54.11
					L570.34,533.4L364.16,46.1L346.17,54.11z"/>
			</g>
			<g>
				<polygon class="st1" points="336.1,57.37 599.99,600 316.1,67.56 				"/>
				<path class="st1" d="M598.79,600.64L314.26,66.98l22.47-11.45l0.6,1.24l263.89,542.64L598.79,600.64z M317.95,68.14
					l248.96,466.92L335.49,59.2L317.95,68.14z"/>
			</g>
			<g>
				<polygon class="st1" points="308.07,71.92 599.99,600 288.63,83.14 				"/>
				<path class="st1" d="M598.83,600.7L286.75,82.66l21.84-12.61l0.66,1.21l291.93,528.08L598.83,600.7z M290.49,83.63
					l273.07,453.26L307.55,73.78L290.49,83.63z"/>
			</g>
			<g>
				<polygon class="st1" points="280.83,87.92 599.99,600 262,100.15 				"/>
				<path class="st1" d="M598.87,600.76l-338.77-501l21.15-13.73l0.72,1.17l319.17,512.08L598.87,600.76z M263.9,100.54
					l296.4,438.33L280.41,89.81L263.9,100.54z"/>
			</g>
			<g>
				<polygon class="st1" points="254.47,105.33 599.99,600 236.31,118.52 				"/>
				<path class="st1" d="M598.91,600.82L234.39,118.24l20.4-14.81l0.79,1.13l345.52,494.67L598.91,600.82z M238.22,118.8
					l318.93,422.23l-302.99-433.8L238.22,118.8z"/>
			</g>
			<g>
				<polygon class="st1" points="229.05,124.09 599.99,600 211.61,138.22 				"/>
				<path class="st1" d="M598.95,600.87L209.68,138.03l19.59-15.86l0.85,1.09l370.95,475.91L598.95,600.87z M213.53,138.4
					l340.58,404.95L228.83,126.01L213.53,138.4z"/>
			</g>
			<g>
				<polygon class="st1" points="204.65,144.16 599.99,600 187.97,159.18 				"/>
				<path class="st1" d="M599.01,600.93L186.03,159.1l18.74-16.88l0.9,1.04l395.34,455.85L599.01,600.93z M189.9,159.26
					l361.32,386.58l-346.7-399.75L189.9,159.26z"/>
			</g>
			<g>
				<polygon class="st1" points="181.34,165.47 599.99,600 165.46,181.34 				"/>
				<path class="st1" d="M599.05,600.98L163.53,181.36l17.82-17.82l0.96,0.99l418.66,434.53L599.05,600.98z M167.4,181.32
					l381.04,367.12L181.32,167.4L167.4,181.32z"/>
			</g>
			<g>
				<polygon class="st1" points="159.17,187.98 599.99,600 144.15,204.66 				"/>
				<path class="st1" d="M599.1,601.02L142.21,204.79l16.88-18.74l1.01,0.94l440.82,412.02L599.1,601.02z M146.08,204.54
					l399.75,346.7L159.25,189.91L146.08,204.54z"/>
			</g>
			<g>
				<polygon class="st1" points="138.21,211.61 599.99,600 124.08,229.06 				"/>
				<path class="st1" d="M599.17,601.07L122.16,229.28l15.86-19.6l1.06,0.88l461.79,388.39L599.17,601.07z M126.01,228.84
					l417.35,325.29l-404.97-340.6L126.01,228.84z"/>
			</g>
			<g>
				<polygon class="st1" points="118.52,236.31 599.99,600 105.32,254.47 				"/>
				<path class="st1" d="M599.22,601.11L103.41,254.79l14.82-20.4l1.1,0.83l481.48,363.69L599.22,601.11z M107.22,254.16
					l433.81,303.01L118.8,238.23L107.22,254.16z"/>
			</g>
			<g>
				<polygon class="st1" points="100.14,262.01 599.99,600 87.92,280.84 				"/>
				<path class="st1" d="M599.28,601.15L86.03,281.26l13.73-21.14l1.15,0.78l499.85,337.99L599.28,601.15z M89.81,280.41
					l449.04,279.88L100.53,263.91L89.81,280.41z"/>
			</g>
			<g>
				<polygon class="st1" points="83.14,288.63 599.99,600 71.91,308.07 				"/>
				<path class="st1" d="M599.34,601.18L70.05,308.6l12.6-21.83l1.18,0.71l516.86,311.36L599.34,601.18z M73.78,307.55
					l463.08,255.99L83.62,290.51L73.78,307.55z"/>
			</g>
			<g>
				<polygon class="st1" points="67.55,316.11 599.99,600 57.36,336.11 				"/>
				<path class="st1" d="M599.4,601.22L55.52,336.73l11.45-22.47l1.22,0.64L600.63,598.8L599.4,601.22z M59.19,335.49l475.86,231.42
					L68.14,317.95L59.19,335.49z"/>
			</g>
			<g>
				<polygon class="st1" points="53.42,344.36 599.99,600 44.29,364.87 				"/>
				<path class="st1" d="M599.47,601.24L42.49,365.58l10.25-23.02l1.25,0.58l546.57,255.64L599.47,601.24z M46.1,364.16
					l487.3,206.19L54.1,346.17L46.1,364.16z"/>
			</g>
			<g>
				<polygon class="st1" points="40.79,373.32 599.99,600 32.75,394.28 				"/>
				<path class="st1" d="M599.54,601.27L30.99,395.08l9.03-23.53l1.28,0.52l559.2,226.68L599.54,601.27z M34.51,393.47l497.43,180.4
					L41.56,375.09L34.51,393.47z"/>
			</g>
			<g>
				<polygon class="st1" points="29.7,402.9 599.99,600 22.76,424.25 				"/>
				<path class="st1" d="M599.6,601.3L21.04,425.14l7.79-23.97l1.31,0.45l570.3,197.1L599.6,601.3z M24.47,423.36l506.21,154.12
					L30.56,404.63L24.47,423.36z"/>
			</g>
			<g>
				<polygon class="st1" points="20.16,433.01 599.99,600 14.35,454.7 				"/>
				<path class="st1" d="M599.67,601.32L12.68,455.68l6.52-24.35l1.33,0.38l579.83,166.98L599.67,601.32z M16.02,453.72
					l513.56,127.41L21.11,434.7L16.02,453.72z"/>
			</g>
			<g>
				<polygon class="st1" points="12.22,463.59 599.99,600 7.55,485.55 				"/>
				<path class="st1" d="M599.74,601.33L5.93,486.61l5.24-24.65l1.35,0.31L600.3,598.68L599.74,601.33z M9.16,484.48l519.52,100.37
					L13.26,465.23L9.16,484.48z"/>
			</g>
			<g>
				<polygon class="st1" points="5.88,494.54 599.99,600 2.37,516.71 				"/>
				<path class="st1" d="M599.81,601.34L0.82,517.86l3.95-24.9l1.36,0.25l594.11,105.46L599.81,601.34z M3.93,515.55l524.05,73.05
					L7.01,496.12L3.93,515.55z"/>
			</g>
			<g>
				<polygon class="st1" points="1.18,525.78 599.99,600 -1.17,548.1 				"/>
				<path class="st1" d="M599.88,601.35L-2.66,549.34l2.63-25.09l1.37,0.18l598.82,74.23L599.88,601.35z M0.33,546.87l527.2,45.51
					L2.37,527.29L0.33,546.87z"/>
			</g>
			<g>
				<polygon class="st1" points="-1.89,557.22 599.99,600 -3.06,579.63 				"/>
				<path class="st1" d="M599.95,601.36L-4.49,580.94l1.32-25.18l1.38,0.1l601.88,42.79L599.95,601.36z M-1.63,578.33l528.85,17.86
					L-0.61,558.66L-1.63,578.33z"/>
			</g>
			<g>
				<polygon class="st1" points="-3.3,588.78 599.99,600 -3.3,611.22 				"/>
				<path class="st1" d="M-4.66,612.61v-25.21l1.39,0.02l603.3,11.23v2.72L-4.66,612.61z M-1.94,590.15v19.7L527.13,600
					L-1.94,590.15z"/>
			</g>
			<g>
				<polygon class="st1" points="-3.06,620.36 599.99,600 -1.89,642.78 				"/>
				<path class="st1" d="M-3.17,644.23l-1.32-25.18l1.39-0.05l603.06-20.36l0.14,2.71L-3.17,644.23z M-1.63,621.67l1.02,19.67
					l527.82-37.52L-1.63,621.67z"/>
			</g>
			<g>
				<polygon class="st1" points="-1.17,651.9 599.99,600 1.18,674.22 				"/>
				<path class="st1" d="M-0.03,675.74l-2.63-25.08l1.38-0.11l601.16-51.9l0.28,2.69L-0.03,675.74z M0.33,653.13l2.05,19.57
					l525.12-65.08L0.33,653.13z"/>
			</g>
			<g>
				<polygon class="st1" points="2.37,683.29 599.99,600 5.88,705.46 				"/>
				<path class="st1" d="M4.77,707.04l-3.95-24.9l1.37-0.19l597.62-83.29l0.42,2.67L4.77,707.04z M3.93,684.45l3.08,19.43
					l520.97-92.47L3.93,684.45z"/>
			</g>
			<g>
				<polygon class="st1" points="7.55,714.45 599.99,600 12.22,736.41 				"/>
				<path class="st1" d="M11.17,738.04l-5.24-24.65l1.36-0.26l592.45-114.45l0.56,2.66L11.17,738.04z M9.16,715.52l4.1,19.25
					l515.42-119.62L9.16,715.52z"/>
			</g>
			<g>
				<polygon class="st1" points="14.35,745.3 599.99,600 20.16,766.99 				"/>
				<path class="st1" d="M19.21,768.67l-6.52-24.35l1.34-0.34l585.64-145.3l0.71,2.62L19.21,768.67z M16.02,746.28l5.09,19.01
					l508.47-146.43L16.02,746.28z"/>
			</g>
			<g>
				<polygon class="st1" points="22.76,775.75 599.99,600 29.7,797.1 				"/>
				<path class="st1" d="M28.83,798.83l-7.79-23.97l1.32-0.41L599.6,598.7l0.84,2.58L28.83,798.83z M24.47,776.64l6.09,18.73
					l500.12-172.85L24.47,776.64z"/>
			</g>
			<g>
				<polygon class="st1" points="32.75,805.72 599.99,600 40.79,826.68 				"/>
				<path class="st1" d="M40.02,828.46l-9.03-23.54l1.3-0.47l567.25-205.72l0.97,2.52L40.02,828.46z M34.51,806.52l7.05,18.39
					l490.41-198.8L34.51,806.52z"/>
			</g>
			<g>
				<polygon class="st1" points="44.29,835.13 599.99,600 53.42,855.64 				"/>
				<path class="st1" d="M52.74,857.45l-10.25-23.02l1.27-0.54l555.7-235.13l1.1,2.47L52.74,857.45z M46.1,835.84l8.01,17.99
					l479.29-224.18L46.1,835.84z"/>
			</g>
			<g>
				<polygon class="st1" points="57.36,863.89 599.99,600 67.55,883.89 				"/>
				<path class="st1" d="M66.97,885.74l-11.45-22.47l1.24-0.6L599.4,598.78l1.23,2.42L66.97,885.74z M59.19,864.51l8.94,17.54
					l466.92-248.96L59.19,864.51z"/>
			</g>
			<g>
				<polygon class="st1" points="71.91,891.93 599.99,600 83.14,911.37 				"/>
				<path class="st1" d="M82.65,913.23l-12.6-21.83l1.21-0.66l528.08-291.93l1.35,2.35L82.65,913.23z M73.78,892.45l9.84,17.05
					l453.23-273.03L73.78,892.45z"/>
			</g>
			<g>
				<polygon class="st1" points="87.92,919.16 599.99,600 100.14,937.99 				"/>
				<path class="st1" d="M99.76,939.89l-13.73-21.15l1.17-0.72l512.08-319.17l1.47,2.27L99.76,939.89z M89.81,919.59l10.73,16.51
					l438.33-296.4L89.81,919.59z"/>
			</g>
			<g>
				<polygon class="st1" points="105.32,945.53 599.99,600 118.52,963.69 				"/>
				<path class="st1" d="M118.23,965.61l-14.82-20.4l1.13-0.79l494.68-345.52l1.6,2.2L118.23,965.61z M107.22,945.84l11.57,15.93
					l422.24-318.95L107.22,945.84z"/>
			</g>
			<g>
				<polygon class="st1" points="124.08,970.94 599.99,600 138.21,988.39 				"/>
				<path class="st1" d="M138.02,990.31l-15.86-19.59l1.09-0.85l475.91-370.95l1.7,2.11L138.02,990.31z M126.01,971.17l12.38,15.3
					l404.95-340.58L126.01,971.17z"/>
			</g>
			<g>
				<polygon class="st1" points="144.15,995.34 599.99,600 159.17,1012.02 				"/>
				<path class="st1" d="M159.09,1013.95l-16.88-18.74l1.04-0.9L599.1,598.98l1.82,2.01L159.09,1013.95z M146.08,995.46l13.17,14.63
					l386.58-361.32L146.08,995.46z"/>
			</g>
			<g>
				<polygon class="st1" points="165.46,1018.66 599.99,600 181.34,1034.53 				"/>
				<path class="st1" d="M181.35,1036.46l-17.82-17.82l0.99-0.96l434.53-418.66l1.92,1.92L181.35,1036.46z M167.4,1018.68
					l13.92,13.92l367.12-381.04L167.4,1018.68z"/>
			</g>
			<g>
				<polygon class="st1" points="187.97,1040.82 599.99,600 204.65,1055.84 				"/>
				<path class="st1" d="M204.77,1057.78l-18.74-16.88l0.94-1.01l412.03-440.82l2.01,1.82L204.77,1057.78z M189.9,1040.74
					l14.63,13.17l346.7-399.75L189.9,1040.74z"/>
			</g>
			<g>
				<polygon class="st1" points="211.61,1061.78 599.99,600 229.05,1075.91 				"/>
				<path class="st1" d="M229.27,1077.84l-19.59-15.87l0.88-1.06l388.39-461.78l2.11,1.7L229.27,1077.84z M213.53,1061.59
					l15.3,12.39l325.3-417.34L213.53,1061.59z"/>
			</g>
			<g>
				<polygon class="st1" points="236.31,1081.48 599.99,600 254.47,1094.67 				"/>
				<path class="st1" d="M254.79,1096.58l-20.4-14.81l0.83-1.1l363.69-481.48l2.2,1.6L254.79,1096.58z M238.22,1081.2l15.93,11.56
					l302.99-433.8L238.22,1081.2z"/>
			</g>
			<g>
				<polygon class="st1" points="262,1099.85 599.99,600 280.83,1112.08 				"/>
				<path class="st1" d="M281.25,1113.97l-21.15-13.73l0.78-1.15l337.99-499.85l2.27,1.47L281.25,1113.97z M263.9,1099.46
					l16.51,10.73L560.3,661.13L263.9,1099.46z"/>
			</g>
			<g>
				<polygon class="st1" points="288.63,1116.85 599.99,600 308.07,1128.08 				"/>
				<path class="st1" d="M308.59,1129.94l-21.84-12.61l0.71-1.18L598.83,599.3l2.35,1.35L308.59,1129.94z M290.49,1116.37
					l17.05,9.85l256.02-463.11L290.49,1116.37z"/>
			</g>
			<g>
				<polygon class="st1" points="316.1,1132.44 599.99,600 336.1,1142.63 				"/>
				<path class="st1" d="M336.72,1144.47l-22.47-11.45l0.64-1.22l283.89-532.44l2.42,1.23L336.72,1144.47z M317.95,1131.86
					l17.54,8.94l231.42-475.86L317.95,1131.86z"/>
			</g>
			<g>
				<polygon class="st1" points="344.36,1146.57 599.99,600 364.87,1155.7 				"/>
				<path class="st1" d="M365.57,1157.5l-23.02-10.25l0.58-1.25l255.64-546.57l2.47,1.1L365.57,1157.5z M346.17,1145.89l17.99,8.01
					l206.19-487.3L346.17,1145.89z"/>
			</g>
			<g>
				<polygon class="st1" points="373.31,1159.2 599.99,600 394.27,1167.24 				"/>
				<path class="st1" d="M395.07,1169.01l-23.53-9.05l0.52-1.28l226.68-559.2l2.52,0.97L395.07,1169.01z M375.09,1158.43l18.38,7.05
					l180.41-497.43L375.09,1158.43z"/>
			</g>
			<g>
				<polygon class="st1" points="402.89,1170.3 599.99,600 424.24,1177.23 				"/>
				<path class="st1" d="M425.13,1178.94l-23.97-7.78l0.45-1.31l197.1-570.3l2.58,0.84L425.13,1178.94z M404.62,1169.44l18.72,6.08
					l154.11-506.17L404.62,1169.44z"/>
			</g>
			<g>
				<polygon class="st1" points="433.01,1179.83 599.99,600 454.69,1185.64 				"/>
				<path class="st1" d="M455.67,1187.31l-24.35-6.52l0.38-1.33l166.98-579.83l2.62,0.71L455.67,1187.31z M434.7,1178.88l19.01,5.09
					l127.41-513.56L434.7,1178.88z"/>
			</g>
			<g>
				<polygon class="st1" points="463.58,1187.78 599.99,600 485.54,1192.44 				"/>
				<path class="st1" d="M486.61,1194.05l-24.66-5.23l0.31-1.35l136.42-587.78l2.66,0.56L486.61,1194.05z M465.21,1186.74
					l19.26,4.09l100.37-519.54L465.21,1186.74z"/>
			</g>
			<g>
				<polygon class="st1" points="494.53,1194.11 599.99,600 516.7,1197.62 				"/>
				<path class="st1" d="M517.86,1199.17l-24.91-3.95l0.25-1.36l105.47-594.11l2.67,0.42L517.86,1199.17z M496.11,1192.99
					l19.44,3.08l73.05-524.08L496.11,1192.99z"/>
			</g>
			<g>
				<polygon class="st1" points="525.77,1198.82 599.99,600 548.09,1201.16 				"/>
				<path class="st1" d="M549.33,1202.65l-25.08-2.64l0.18-1.37l74.23-598.81l2.69,0.28L549.33,1202.65z M527.29,1197.61l19.57,2.06
					l45.52-527.17L527.29,1197.61z"/>
			</g>
			<g>
				<polygon class="st1" points="557.21,1201.88 599.99,600 579.63,1203.05 				"/>
				<path class="st1" d="M580.94,1204.48l-25.18-1.32l0.1-1.38l42.79-601.88l2.71,0.14L580.94,1204.48z M558.66,1200.6l19.67,1.02
					l17.86-528.84L558.66,1200.6z"/>
			</g>
			<g>
				<polygon class="st1" points="588.77,1203.29 599.99,600 611.22,1203.29 				"/>
				<path class="st1" d="M612.59,1204.66h-25.2l0.02-1.39l11.23-603.3h2.72L612.59,1204.66z M590.14,1201.94h19.69l-9.84-529.05
					L590.14,1201.94z"/>
			</g>
			<g>
				<polygon class="st1" points="620.36,1203.05 599.99,600 642.78,1201.88 				"/>
				<path class="st1" d="M619.05,1204.48l-0.05-1.39l-20.36-603.05l2.71-0.14l42.87,603.25L619.05,1204.48z M603.81,672.81
					l17.86,528.81l19.66-1.02L603.81,672.81z"/>
			</g>
			<g>
				<polygon class="st1" points="651.89,1201.16 599.99,600 674.22,1198.82 				"/>
				<path class="st1" d="M650.65,1202.65l-0.11-1.38l-51.9-601.16l2.69-0.28l74.4,600.18L650.65,1202.65z M607.61,672.5
					l45.51,527.17l19.57-2.06L607.61,672.5z"/>
			</g>
			<g>
				<polygon class="st1" points="683.28,1197.62 599.99,600 705.45,1194.11 				"/>
				<path class="st1" d="M682.12,1199.17l-0.19-1.37l-83.28-597.62l2.67-0.42l105.71,595.47L682.12,1199.17z M611.4,671.99
					l73.04,524.08l19.44-3.08L611.4,671.99z"/>
			</g>
			<g>
				<polygon class="st1" points="714.45,1192.44 599.99,600 736.4,1187.78 				"/>
				<path class="st1" d="M713.38,1194.05l-0.26-1.36L598.66,600.26l2.66-0.56l136.72,589.13L713.38,1194.05z M615.15,671.32
					l100.37,519.51l19.25-4.09L615.15,671.32z"/>
			</g>
			<g>
				<polygon class="st1" points="745.3,1185.64 599.99,600 766.98,1179.83 				"/>
				<path class="st1" d="M744.31,1187.31l-0.34-1.34l-145.3-585.64l2.62-0.71l167.36,581.17L744.31,1187.31z M618.86,670.39
					l127.41,513.59l19.02-5.09L618.86,670.39z"/>
			</g>
			<g>
				<polygon class="st1" points="775.75,1177.23 599.99,600 797.1,1170.3 				"/>
				<path class="st1" d="M774.85,1178.94l-0.41-1.32L598.7,600.4l2.58-0.84l197.55,571.61L774.85,1178.94z M622.52,669.32
					l154.11,506.2l18.73-6.08L622.52,669.32z"/>
			</g>
			<g>
				<polygon class="st1" points="805.71,1167.24 599.99,600 826.67,1159.2 				"/>
				<path class="st1" d="M804.91,1169.01l-0.47-1.31L598.72,600.46l2.52-0.97l227.2,560.48L804.91,1169.01z M626.11,668.05
					l180.4,497.43l18.38-7.05L626.11,668.05z"/>
			</g>
			<g>
				<polygon class="st1" points="835.12,1155.7 599.99,600 855.63,1146.57 				"/>
				<path class="st1" d="M834.4,1157.5l-0.53-1.27l-235.12-555.7l2.47-1.1l256.22,547.83L834.4,1157.5z M629.64,666.58
					l206.19,487.32l18-8.01L629.64,666.58z"/>
			</g>
			<g>
				<polygon class="st1" points="863.88,1142.63 599.99,600 883.88,1132.44 				"/>
				<path class="st1" d="M863.27,1144.47l-0.6-1.24L598.78,600.59l2.42-1.23l284.53,533.66L863.27,1144.47z M633.1,664.96
					L864.5,1140.8l17.53-8.94L633.1,664.96z"/>
			</g>
			<g>
				<polygon class="st1" points="891.92,1128.08 599.99,600 911.36,1116.85 				"/>
				<path class="st1" d="M891.4,1129.94l-0.66-1.21L598.81,600.65l2.35-1.35l312.07,518.03L891.4,1129.94z M636.44,663.12
					l256,463.09l17.05-9.85L636.44,663.12z"/>
			</g>
			<g>
				<polygon class="st1" points="919.16,1112.08 599.99,600 937.98,1099.85 				"/>
				<path class="st1" d="M918.74,1113.97l-0.72-1.17L598.85,600.72l2.27-1.47l338.76,501L918.74,1113.97z M639.71,661.15
					l279.88,449.04l16.5-10.73L639.71,661.15z"/>
			</g>
			<g>
				<polygon class="st1" points="945.52,1094.67 599.99,600 963.68,1081.48 				"/>
				<path class="st1" d="M945.2,1096.58l-0.79-1.13L598.88,600.78l2.2-1.6l364.51,482.58L945.2,1096.58z M642.85,658.98
					l302.99,433.78l15.92-11.56L642.85,658.98z"/>
			</g>
			<g>
				<polygon class="st1" points="970.93,1075.91 599.99,600 988.38,1061.78 				"/>
				<path class="st1" d="M970.71,1077.84l-0.85-1.09L598.93,600.83l2.11-1.7l389.27,462.84L970.71,1077.84z M645.85,656.63
					l325.3,417.36l15.31-12.39L645.85,656.63z"/>
			</g>
			<g>
				<polygon class="st1" points="995.33,1055.84 599.99,600 1012.02,1040.82 				"/>
				<path class="st1" d="M995.21,1057.78l-0.9-1.04L598.97,600.89l2.01-1.82l412.96,441.83L995.21,1057.78z M648.76,654.16
					l346.7,399.75l14.63-13.17L648.76,654.16z"/>
			</g>
			<g>
				<polygon class="st1" points="1018.65,1034.53 599.99,600 1034.52,1018.66 				"/>
				<path class="st1" d="M1018.63,1036.46l-0.96-0.99L599.02,600.94l1.92-1.92l435.52,419.62L1018.63,1036.46z M651.55,651.55
					l367.12,381.04l13.92-13.92L651.55,651.55z"/>
			</g>
			<g>
				<polygon class="st1" points="1040.82,1012.02 599.99,600 1055.84,995.34 				"/>
				<path class="st1" d="M1040.9,1013.95l-1.01-0.94L599.07,600.99l1.82-2.01l456.89,396.24L1040.9,1013.95z M654.16,648.76
					l386.58,361.32l13.17-14.63L654.16,648.76z"/>
			</g>
			<g>
				<polygon class="st1" points="1061.78,988.39 599.99,600 1075.9,970.94 				"/>
				<path class="st1" d="M1061.96,990.31l-1.06-0.88L599.12,601.04l1.7-2.11l477.01,371.79L1061.96,990.31z M656.64,645.87
					l404.95,340.6l12.39-15.3L656.64,645.87z"/>
			</g>
			<g>
				<polygon class="st1" points="1081.47,963.69 599.99,600 1094.66,945.53 				"/>
				<path class="st1" d="M1081.75,965.61l-1.1-0.83L599.17,601.09l1.6-2.2l495.8,346.32L1081.75,965.61z M658.95,642.83
					l422.23,318.95l11.57-15.93L658.95,642.83z"/>
			</g>
			<g>
				<polygon class="st1" points="1099.84,937.99 599.99,600 1112.07,919.16 				"/>
				<path class="st1" d="M1100.23,939.89l-1.15-0.78L599.24,601.12l1.47-2.27l513.25,319.89L1100.23,939.89z M661.12,639.7
					l438.33,296.4l10.73-16.51L661.12,639.7z"/>
			</g>
			<g>
				<polygon class="st1" points="1116.85,911.37 599.99,600 1128.07,891.93 				"/>
				<path class="st1" d="M1117.33,913.23l-1.18-0.71L599.3,601.17l1.35-2.35l529.29,292.59L1117.33,913.23z M663.12,636.45
					l453.24,273.04l9.85-17.05L663.12,636.45z"/>
			</g>
			<g>
				<polygon class="st1" points="1132.44,883.89 599.99,600 1142.63,863.89 				"/>
				<path class="st1" d="M1133.02,885.74l-1.22-0.64L599.36,601.2l1.23-2.42l543.88,264.49L1133.02,885.74z M664.94,633.08
					l466.92,248.96l8.94-17.54L664.94,633.08z"/>
			</g>
			<g>
				<polygon class="st1" points="1146.56,855.64 599.99,600 1155.69,835.13 				"/>
				<path class="st1" d="M1147.24,857.45l-1.25-0.58L599.42,601.23l1.1-2.47l556.97,235.67L1147.24,857.45z M666.58,629.65
					l479.3,224.18l8.02-17.99L666.58,629.65z"/>
			</g>
			<g>
				<polygon class="st1" points="1159.19,826.68 599.99,600 1167.24,805.72 				"/>
				<path class="st1" d="M1159.96,828.46l-1.28-0.52l-559.2-226.68l0.97-2.52L1169,804.92L1159.96,828.46z M668.02,626.11
					l490.41,198.8l7.06-18.39L668.02,626.11z"/>
			</g>
			<g>
				<polygon class="st1" points="1170.29,797.1 599.99,600 1177.23,775.75 				"/>
				<path class="st1" d="M1171.16,798.83l-1.31-0.45l-570.3-197.1l0.84-2.58l578.55,176.16L1171.16,798.83z M669.32,622.53
					l500.12,172.85l6.08-18.73L669.32,622.53z"/>
			</g>
			<g>
				<polygon class="st1" points="1179.82,766.99 599.99,600 1185.63,745.3 				"/>
				<path class="st1" d="M1180.78,768.67l-1.33-0.38L599.62,601.31l0.71-2.62l586.98,145.64L1180.78,768.67z M670.41,618.87
					l508.47,146.43l5.09-19.01L670.41,618.87z"/>
			</g>
			<g>
				<polygon class="st1" points="1187.77,736.41 599.99,600 1192.44,714.45 				"/>
				<path class="st1" d="M1188.81,738.04l-1.35-0.31L599.69,601.32l0.56-2.66l593.8,114.72L1188.81,738.04z M671.3,615.16
					l515.42,119.62l4.1-19.25L671.3,615.16z"/>
			</g>
			<g>
				<polygon class="st1" points="1194.1,705.46 599.99,600 1197.61,683.29 				"/>
				<path class="st1" d="M1195.22,707.04l-1.36-0.25L599.76,601.33l0.42-2.67l598.99,83.48L1195.22,707.04z M672.01,611.4
					l520.97,92.47l3.08-19.43L672.01,611.4z"/>
			</g>
			<g>
				<polygon class="st1" points="1198.81,674.22 599.99,600 1201.15,651.9 				"/>
				<path class="st1" d="M1200.01,675.74l-1.37-0.18l-598.81-74.22l0.28-2.69l602.54,52.01L1200.01,675.74z M672.49,607.62
					l525.11,65.08l2.06-19.57L672.49,607.62z"/>
			</g>
			<g>
				<polygon class="st1" points="1201.87,642.78 599.99,600 1203.05,620.36 				"/>
				<path class="st1" d="M1203.15,644.23l-1.38-0.1L599.9,601.35l0.14-2.71l604.44,20.42L1203.15,644.23z M672.78,603.81
					l527.82,37.52l1.02-19.67L672.78,603.81z"/>
			</g>
			<g>
				<polygon class="st1" points="1203.29,611.22 599.99,600 1203.29,588.78 				"/>
				<path class="st1" d="M1204.64,612.61l-1.39-0.02l-603.29-11.23v-2.72l604.67-11.25V612.61z M672.85,600l529.07,9.85v-19.7
					L672.85,600z"/>
			</g>
			<g>
				<polygon class="st1" points="1203.05,579.63 599.99,600 1201.87,557.22 				"/>
				<path class="st1" d="M600.04,601.36l-0.14-2.71l603.25-42.88l1.32,25.18l-1.39,0.05L600.04,601.36z M1200.59,558.66
					l-527.82,37.52l528.84-17.86L1200.59,558.66z"/>
			</g>
			<g>
				<polygon class="st1" points="1201.15,548.1 599.99,600 1198.81,525.78 				"/>
				<path class="st1" d="M600.11,601.35l-0.28-2.69l600.18-74.4l2.64,25.09l-1.38,0.11L600.11,601.35z M1197.61,527.29
					l-525.15,65.09l527.21-45.51L1197.61,527.29z"/>
			</g>
			<g>
				<polygon class="st1" points="1197.61,516.71 599.99,600 1194.1,494.54 				"/>
				<path class="st1" d="M600.18,601.34l-0.42-2.67l595.47-105.71l3.95,24.9l-1.37,0.19L600.18,601.34z M1192.98,496.12
					L672.01,588.6l524.05-73.05L1192.98,496.12z"/>
			</g>
			<g>
				<polygon class="st1" points="1192.44,485.55 599.99,600 1187.77,463.59 				"/>
				<path class="st1" d="M600.25,601.33l-0.56-2.66l589.12-136.72l5.24,24.65l-1.36,0.26L600.25,601.33z M1186.72,465.23
					L671.3,584.84l519.52-100.37L1186.72,465.23z"/>
			</g>
			<g>
				<polygon class="st1" points="1185.63,454.7 599.99,600 1179.82,433.01 				"/>
				<path class="st1" d="M600.32,601.32l-0.71-2.62l581.17-167.36l6.52,24.35l-1.34,0.34L600.32,601.32z M1178.88,434.7
					L670.41,581.13l513.56-127.41L1178.88,434.7z"/>
			</g>
			<g>
				<polygon class="st1" points="1177.23,424.25 599.99,600 1170.29,402.9 				"/>
				<path class="st1" d="M600.39,601.3l-0.84-2.58l571.61-197.55l7.78,23.97l-1.32,0.41L600.39,601.3z M1169.43,404.63
					L669.32,577.47l506.2-154.11L1169.43,404.63z"/>
			</g>
			<g>
				<polygon class="st1" points="1167.24,394.28 599.99,600 1159.19,373.32 				"/>
				<path class="st1" d="M600.45,601.27l-0.97-2.52l560.48-227.2l9.05,23.53l-1.31,0.47L600.45,601.27z M1158.42,375.09
					L668.04,573.88l497.43-180.41L1158.42,375.09z"/>
			</g>
			<g>
				<polygon class="st1" points="1155.69,364.87 599.99,600 1146.56,344.36 				"/>
				<path class="st1" d="M600.52,601.24l-1.1-2.47l547.82-256.22l10.26,23.02l-1.27,0.54L600.52,601.24z M1145.88,346.17
					l-479.3,224.18l487.32-206.19L1145.88,346.17z"/>
			</g>
			<g>
				<polygon class="st1" points="1142.63,336.11 599.99,600 1132.44,316.11 				"/>
				<path class="st1" d="M600.59,601.22l-1.23-2.42l533.66-284.54l11.45,22.47l-1.24,0.6L600.59,601.22z M1131.85,317.95
					L664.94,566.92l475.86-231.42L1131.85,317.95z"/>
			</g>
			<g>
				<polygon class="st1" points="1128.07,308.07 599.99,600 1116.85,288.63 				"/>
				<path class="st1" d="M600.65,601.18l-1.35-2.35l518.03-312.07l12.61,21.83l-1.21,0.66L600.65,601.18z M1116.36,290.51
					L663.12,563.55l463.09-256L1116.36,290.51z"/>
			</g>
			<g>
				<polygon class="st1" points="1112.07,280.84 599.99,600 1099.84,262.01 				"/>
				<path class="st1" d="M600.71,601.15l-1.47-2.27l501-338.76l13.73,21.14l-1.17,0.72L600.71,601.15z M1099.46,263.91
					L661.14,560.29l449.04-279.88L1099.46,263.91z"/>
			</g>
			<g>
				<polygon class="st1" points="1094.66,254.47 599.99,600 1081.47,236.31 				"/>
				<path class="st1" d="M600.77,601.11l-1.6-2.2l482.58-364.52l14.82,20.4l-1.13,0.79L600.77,601.11z M1081.18,238.23
					L658.95,557.17l433.81-303.01L1081.18,238.23z"/>
			</g>
			<g>
				<polygon class="st1" points="1075.9,229.06 599.99,600 1061.78,211.61 				"/>
				<path class="st1" d="M600.82,601.07l-1.7-2.11l462.84-389.27l15.87,19.6l-1.09,0.85L600.82,601.07z M1061.59,213.54
					L656.62,554.14l417.36-325.3L1061.59,213.54z"/>
			</g>
			<g>
				<polygon class="st1" points="1055.84,204.66 599.99,600 1040.82,187.98 				"/>
				<path class="st1" d="M600.89,601.02l-1.82-2.01l441.83-412.96l16.88,18.74l-1.04,0.9L600.89,601.02z M1040.74,189.91
					L654.16,551.24l399.75-346.7L1040.74,189.91z"/>
			</g>
			<g>
				<polygon class="st1" points="1034.52,181.34 599.99,600 1018.65,165.47 				"/>
				<path class="st1" d="M600.94,600.98l-1.92-1.92l419.62-435.52l17.82,17.82l-0.99,0.96L600.94,600.98z M1018.67,167.4
					L651.55,548.45l381.04-367.12L1018.67,167.4z"/>
			</g>
			<g>
				<polygon class="st1" points="1012.02,159.18 599.99,600 995.33,144.16 				"/>
				<path class="st1" d="M600.98,600.93l-2.01-1.82l396.24-456.89l18.74,16.88l-0.94,1.01L600.98,600.93z M995.45,146.09
					l-346.7,399.75l361.32-386.58L995.45,146.09z"/>
			</g>
			<g>
				<polygon class="st1" points="988.38,138.22 599.99,600 970.93,124.09 				"/>
				<path class="st1" d="M601.04,600.87l-2.11-1.7l371.79-477.01l19.6,15.86l-0.88,1.06L601.04,600.87z M971.15,126.01
					L645.86,543.36l340.6-404.97L971.15,126.01z"/>
			</g>
			<g>
				<polygon class="st1" points="963.68,118.52 599.99,600 945.52,105.33 				"/>
				<path class="st1" d="M601.08,600.82l-2.2-1.6l346.32-495.8l20.39,14.81l-0.83,1.1L601.08,600.82z M945.84,107.24L642.85,541.02
					L961.76,118.8L945.84,107.24z"/>
			</g>
			<g>
				<polygon class="st1" points="937.98,100.15 599.99,600 919.16,87.92 				"/>
				<path class="st1" d="M601.12,600.76l-2.27-1.47L918.74,86.04l21.14,13.73l-0.78,1.15L601.12,600.76z M919.58,89.81
					L639.71,538.85l296.37-438.32L919.58,89.81z"/>
			</g>
			<g>
				<polygon class="st1" points="911.36,83.14 599.99,600 891.92,71.92 				"/>
				<path class="st1" d="M601.16,600.7l-2.35-1.35L891.4,70.06l21.83,12.61l-0.71,1.18L601.16,600.7z M892.44,73.78l-256,463.09
					L909.49,83.63L892.44,73.78z"/>
			</g>
			<g>
				<polygon class="st1" points="883.88,67.56 599.99,600 863.88,57.37 				"/>
				<path class="st1" d="M601.2,600.64l-2.42-1.23L863.27,55.53l22.46,11.45l-0.64,1.22L601.2,600.64z M864.5,59.2L633.1,535.04
					l248.94-466.9L864.5,59.2z"/>
			</g>
			<g>
				<polygon class="st1" points="855.63,53.43 599.99,600 835.12,44.3 				"/>
				<path class="st1" d="M601.22,600.57l-2.47-1.1L834.4,42.5l23.04,10.25L856.86,54L601.22,600.57z M835.82,46.1L629.64,533.43
					L853.82,54.11L835.82,46.1z"/>
			</g>
			<g>
				<polygon class="st1" points="826.67,40.8 599.99,600 805.71,32.75 				"/>
				<path class="st1" d="M601.25,600.51l-2.52-0.97L804.91,30.99l23.53,9.05l-0.52,1.28L601.25,600.51z M806.52,34.52l-180.4,497.43
					L824.89,41.57L806.52,34.52z"/>
			</g>
			<g>
				<polygon class="st1" points="797.1,29.7 599.99,600 775.75,22.77 				"/>
				<path class="st1" d="M601.27,600.44l-2.58-0.84L774.85,21.05l23.97,7.79l-0.45,1.31L601.27,600.44z M776.64,24.47L622.51,530.69
					L795.37,30.56L776.64,24.47z"/>
			</g>
			<g>
				<polygon class="st1" points="766.98,20.17 599.99,600 745.3,14.36 				"/>
				<path class="st1" d="M601.3,600.38l-2.62-0.71L744.31,12.69l24.35,6.52l-0.38,1.33L601.3,600.38z M746.27,16.03L618.86,529.61
					L765.29,21.12L746.27,16.03z"/>
			</g>
			<g>
				<polygon class="st1" points="736.4,12.22 599.99,600 714.45,7.56 				"/>
				<path class="st1" d="M601.32,600.31l-2.66-0.56L713.38,5.94l24.65,5.24l-0.31,1.35L601.32,600.31z M715.52,9.17L615.15,528.69
					L734.77,13.26L715.52,9.17z"/>
			</g>
			<g>
				<polygon class="st1" points="705.45,5.89 599.99,600 683.28,2.38 				"/>
				<path class="st1" d="M601.33,600.24l-2.67-0.42L682.12,0.83l24.91,3.95l-0.25,1.36L601.33,600.24z M684.44,3.93L611.4,528.01
					l92.47-521L684.44,3.93z"/>
			</g>
			<g>
				<polygon class="st1" points="674.22,1.19 599.99,600 651.89,-1.16 				"/>
				<path class="st1" d="M601.34,600.17l-2.69-0.28L650.65-2.65l25.08,2.64l-0.18,1.37L601.34,600.17z M653.13,0.33L607.61,527.5
					L672.7,2.39L653.13,0.33z"/>
			</g>
			<g>
				<polygon class="st1" points="642.78,-1.88 599.99,600 620.36,-3.05 				"/>
				<path class="st1" d="M601.35,600.1l-2.71-0.14L619.05-4.49l25.17,1.33l-0.1,1.38L601.35,600.1z M621.67-1.63l-17.86,528.82
					L641.32-0.6L621.67-1.63z"/>
			</g>
		</g>
	</g>
	<g>
		<defs>
			<polygon id="SVGID_3_" points="174.33,1025.67 174.33,174.33 600,600 			"/>
		</defs>
		<clipPath id="SVGID_4_">
			<use xlink:href="#SVGID_3_"  style="overflow:visible;"/>
		</clipPath>
		<g class="st3">
			<polygon class="st1" points="611.22,-3.29 600,600 588.78,-3.29 			"/>
			<polygon class="st1" points="548.1,-1.16 600,600 525.78,1.19 			"/>
			<polygon class="st1" points="485.55,7.56 600,600 463.59,12.22 			"/>
			<polygon class="st1" points="424.25,22.77 600,600 402.9,29.7 			"/>
			<polygon class="st1" points="364.87,44.3 600,600 344.36,53.43 			"/>
			<polygon class="st1" points="308.07,71.92 600,600 288.63,83.14 			"/>
			<polygon class="st1" points="254.47,105.33 600,600 236.31,118.52 			"/>
			<polygon class="st1" points="204.66,144.16 600,600 187.98,159.18 			"/>
			<polygon class="st1" points="159.18,187.98 600,600 144.16,204.66 			"/>
			<polygon class="st1" points="118.52,236.31 600,600 105.33,254.47 			"/>
			<polygon class="st1" points="83.15,288.63 600,600 71.92,308.07 			"/>
			<polygon class="st1" points="53.43,344.36 600,600 44.3,364.87 			"/>
			<polygon class="st1" points="29.7,402.9 600,600 22.77,424.25 			"/>
			<polygon class="st1" points="12.22,463.59 600,600 7.56,485.55 			"/>
			<polygon class="st1" points="1.18,525.78 600,600 -1.16,548.1 			"/>
			<polygon class="st1" points="-3.29,588.78 600,600 -3.29,611.22 			"/>
			<polygon class="st1" points="-1.16,651.9 600,600 1.18,674.22 			"/>
			<polygon class="st1" points="7.56,714.45 600,600 12.22,736.41 			"/>
			<polygon class="st1" points="22.77,775.75 600,600 29.7,797.1 			"/>
			<polygon class="st1" points="44.3,835.13 600,600 53.43,855.64 			"/>
			<polygon class="st1" points="71.92,891.93 600,600 83.15,911.37 			"/>
			<polygon class="st1" points="105.33,945.53 600,600 118.52,963.69 			"/>
			<polygon class="st1" points="144.16,995.34 600,600 159.18,1012.02 			"/>
			<polygon class="st1" points="187.98,1040.82 600,600 204.66,1055.84 			"/>
			<polygon class="st1" points="236.31,1081.48 600,600 254.47,1094.67 			"/>
			<polygon class="st1" points="288.63,1116.85 600,600 308.07,1128.08 			"/>
			<polygon class="st1" points="344.36,1146.57 600,600 364.87,1155.7 			"/>
			<polygon class="st1" points="402.9,1170.3 600,600 424.25,1177.23 			"/>
			<polygon class="st1" points="463.59,1187.78 600,600 485.55,1192.44 			"/>
			<polygon class="st1" points="525.78,1198.82 600,600 548.1,1201.16 			"/>
			<polygon class="st1" points="588.78,1203.29 600,600 611.22,1203.29 			"/>
			<polygon class="st1" points="651.9,1201.16 600,600 674.22,1198.82 			"/>
			<polygon class="st1" points="714.45,1192.44 600,600 736.41,1187.78 			"/>
			<polygon class="st1" points="775.75,1177.23 600,600 797.1,1170.3 			"/>
			<polygon class="st1" points="835.13,1155.7 600,600 855.63,1146.57 			"/>
			<polygon class="st1" points="891.93,1128.08 600,600 911.37,1116.85 			"/>
			<polygon class="st1" points="945.53,1094.67 600,600 963.69,1081.48 			"/>
			<polygon class="st1" points="995.34,1055.84 600,600 1012.02,1040.82 			"/>
			<polygon class="st1" points="1040.82,1012.02 600,600 1055.84,995.34 			"/>
			<polygon class="st1" points="1081.48,963.69 600,600 1094.67,945.53 			"/>
			<polygon class="st1" points="1116.86,911.37 600,600 1128.08,891.93 			"/>
			<polygon class="st1" points="1146.57,855.64 600,600 1155.7,835.13 			"/>
			<polygon class="st1" points="1170.3,797.1 600,600 1177.23,775.75 			"/>
			<polygon class="st1" points="1187.78,736.41 600,600 1192.44,714.45 			"/>
			<polygon class="st1" points="1198.81,674.22 600,600 1201.16,651.9 			"/>
			<polygon class="st1" points="1203.29,611.22 600,600 1203.29,588.78 			"/>
			<polygon class="st1" points="1201.16,548.1 600,600 1198.81,525.78 			"/>
			<polygon class="st1" points="1192.44,485.55 600,600 1187.78,463.59 			"/>
			<polygon class="st1" points="1177.23,424.25 600,600 1170.3,402.9 			"/>
			<polygon class="st1" points="1155.7,364.87 600,600 1146.57,344.36 			"/>
			<polygon class="st1" points="1128.08,308.07 600,600 1116.86,288.63 			"/>
			<polygon class="st1" points="1094.67,254.47 600,600 1081.48,236.31 			"/>
			<polygon class="st1" points="1055.84,204.66 600,600 1040.82,187.98 			"/>
			<polygon class="st1" points="1012.02,159.18 600,600 995.34,144.16 			"/>
			<polygon class="st1" points="963.69,118.52 600,600 945.53,105.33 			"/>
			<polygon class="st1" points="911.37,83.14 600,600 891.93,71.92 			"/>
			<polygon class="st1" points="855.63,53.43 600,600 835.13,44.3 			"/>
			<polygon class="st1" points="797.1,29.7 600,600 775.75,22.77 			"/>
			<polygon class="st1" points="736.41,12.22 600,600 714.45,7.56 			"/>
			<polygon class="st1" points="674.22,1.19 600,600 651.9,-1.16 			"/>
		</g>
	</g>
	<g>
		<defs>
			<polygon id="SVGID_5_" points="1025.67,1025.67 1025.67,174.33 600,600 			"/>
		</defs>
		<clipPath id="SVGID_6_">
			<use xlink:href="#SVGID_5_"  style="overflow:visible;"/>
		</clipPath>
		<g class="st4">
			<polygon class="st1" points="588.78,-3.29 600,600 611.22,-3.29 			"/>
			<polygon class="st1" points="651.9,-1.16 600,600 674.22,1.19 			"/>
			<polygon class="st1" points="714.45,7.56 600,600 736.41,12.22 			"/>
			<polygon class="st1" points="775.75,22.77 600,600 797.1,29.7 			"/>
			<polygon class="st1" points="835.13,44.3 600,600 855.64,53.43 			"/>
			<polygon class="st1" points="891.93,71.92 600,600 911.37,83.14 			"/>
			<polygon class="st1" points="945.53,105.33 600,600 963.69,118.52 			"/>
			<polygon class="st1" points="995.34,144.16 600,600 1012.02,159.18 			"/>
			<polygon class="st1" points="1040.82,187.98 600,600 1055.84,204.66 			"/>
			<polygon class="st1" points="1081.48,236.31 600,600 1094.67,254.47 			"/>
			<polygon class="st1" points="1116.85,288.63 600,600 1128.08,308.07 			"/>
			<polygon class="st1" points="1146.57,344.36 600,600 1155.7,364.87 			"/>
			<polygon class="st1" points="1170.3,402.9 600,600 1177.23,424.25 			"/>
			<polygon class="st1" points="1187.78,463.59 600,600 1192.44,485.55 			"/>
			<polygon class="st1" points="1198.82,525.78 600,600 1201.16,548.1 			"/>
			<polygon class="st1" points="1203.29,588.78 600,600 1203.29,611.22 			"/>
			<polygon class="st1" points="1201.16,651.9 600,600 1198.82,674.22 			"/>
			<polygon class="st1" points="1192.44,714.45 600,600 1187.78,736.41 			"/>
			<polygon class="st1" points="1177.23,775.75 600,600 1170.3,797.1 			"/>
			<polygon class="st1" points="1155.7,835.13 600,600 1146.57,855.64 			"/>
			<polygon class="st1" points="1128.08,891.93 600,600 1116.85,911.37 			"/>
			<polygon class="st1" points="1094.67,945.53 600,600 1081.48,963.69 			"/>
			<polygon class="st1" points="1055.84,995.34 600,600 1040.82,1012.02 			"/>
			<polygon class="st1" points="1012.02,1040.82 600,600 995.34,1055.84 			"/>
			<polygon class="st1" points="963.69,1081.48 600,600 945.53,1094.67 			"/>
			<polygon class="st1" points="911.37,1116.85 600,600 891.93,1128.08 			"/>
			<polygon class="st1" points="855.64,1146.57 600,600 835.13,1155.7 			"/>
			<polygon class="st1" points="797.1,1170.3 600,600 775.75,1177.23 			"/>
			<polygon class="st1" points="736.41,1187.78 600,600 714.45,1192.44 			"/>
			<polygon class="st1" points="674.22,1198.82 600,600 651.9,1201.16 			"/>
			<polygon class="st1" points="611.22,1203.29 600,600 588.78,1203.29 			"/>
			<polygon class="st1" points="548.1,1201.16 600,600 525.78,1198.82 			"/>
			<polygon class="st1" points="485.55,1192.44 600,600 463.59,1187.78 			"/>
			<polygon class="st1" points="424.25,1177.23 600,600 402.9,1170.3 			"/>
			<polygon class="st1" points="364.87,1155.7 600,600 344.37,1146.57 			"/>
			<polygon class="st1" points="308.07,1128.08 600,600 288.63,1116.85 			"/>
			<polygon class="st1" points="254.47,1094.67 600,600 236.31,1081.48 			"/>
			<polygon class="st1" points="204.66,1055.84 600,600 187.98,1040.82 			"/>
			<polygon class="st1" points="159.18,1012.02 600,600 144.16,995.34 			"/>
			<polygon class="st1" points="118.52,963.69 600,600 105.33,945.53 			"/>
			<polygon class="st1" points="83.14,911.37 600,600 71.92,891.93 			"/>
			<polygon class="st1" points="53.43,855.64 600,600 44.3,835.13 			"/>
			<polygon class="st1" points="29.7,797.1 600,600 22.77,775.75 			"/>
			<polygon class="st1" points="12.22,736.41 600,600 7.56,714.45 			"/>
			<polygon class="st1" points="1.19,674.22 600,600 -1.16,651.9 			"/>
			<polygon class="st1" points="-3.29,611.22 600,600 -3.29,588.78 			"/>
			<polygon class="st1" points="-1.16,548.1 600,600 1.19,525.78 			"/>
			<polygon class="st1" points="7.56,485.55 600,600 12.22,463.59 			"/>
			<polygon class="st1" points="22.77,424.25 600,600 29.7,402.9 			"/>
			<polygon class="st1" points="44.3,364.87 600,600 53.43,344.36 			"/>
			<polygon class="st1" points="71.92,308.07 600,600 83.14,288.63 			"/>
			<polygon class="st1" points="105.33,254.47 600,600 118.52,236.31 			"/>
			<polygon class="st1" points="144.16,204.66 600,600 159.18,187.98 			"/>
			<polygon class="st1" points="187.98,159.18 600,600 204.66,144.16 			"/>
			<polygon class="st1" points="236.31,118.52 600,600 254.47,105.33 			"/>
			<polygon class="st1" points="288.63,83.14 600,600 308.07,71.92 			"/>
			<polygon class="st1" points="344.37,53.43 600,600 364.87,44.3 			"/>
			<polygon class="st1" points="402.9,29.7 600,600 424.25,22.77 			"/>
			<polygon class="st1" points="463.59,12.22 600,600 485.55,7.56 			"/>
			<polygon class="st1" points="525.78,1.19 600,600 548.1,-1.16 			"/>
		</g>
	</g>
	<g>
		<defs>
			<polygon id="SVGID_7_" points="600,600 174.33,174.33 1025.67,174.33 			"/>
		</defs>
		<clipPath id="SVGID_8_">
			<use xlink:href="#SVGID_7_"  style="overflow:visible;"/>
		</clipPath>
		<g class="st5">
			<polygon class="st1" points="605.61,-3.29 600,600 594.39,-3.29 			"/>
			<polygon class="st1" points="480.06,8.72 600,600 469.08,11.06 			"/>
			<polygon class="st1" points="359.75,46.58 600,600 349.49,51.15 			"/>
			<polygon class="st1" points="249.93,108.63 600,600 240.85,115.22 			"/>
			<polygon class="st1" points="155.42,192.15 600,600 147.91,200.49 			"/>
			<polygon class="st1" points="80.34,293.49 600,600 74.73,303.21 			"/>
			<polygon class="st1" points="27.97,408.23 600,600 24.5,418.91 			"/>
			<polygon class="st1" points="0.6,531.36 600,600 -0.57,542.52 			"/>
			<polygon class="st1" points="-0.57,657.48 600,600 0.6,668.64 			"/>
			<polygon class="st1" points="24.5,781.09 600,600 27.97,791.77 			"/>
			<polygon class="st1" points="74.73,896.79 600,600 80.34,906.51 			"/>
			<polygon class="st1" points="147.91,999.51 600,600 155.42,1007.85 			"/>
			<polygon class="st1" points="240.85,1084.78 600,600 249.93,1091.37 			"/>
			<polygon class="st1" points="349.49,1148.85 600,600 359.75,1153.42 			"/>
			<polygon class="st1" points="469.08,1188.94 600,600 480.06,1191.28 			"/>
			<polygon class="st1" points="594.39,1203.29 600,600 605.61,1203.29 			"/>
			<polygon class="st1" points="719.94,1191.28 600,600 730.92,1188.94 			"/>
			<polygon class="st1" points="840.25,1153.42 600,600 850.51,1148.85 			"/>
			<polygon class="st1" points="950.07,1091.37 600,600 959.15,1084.78 			"/>
			<polygon class="st1" points="1044.58,1007.85 600,600 1052.09,999.51 			"/>
			<polygon class="st1" points="1119.66,906.51 600,600 1125.27,896.79 			"/>
			<polygon class="st1" points="1172.03,791.77 600,600 1175.5,781.09 			"/>
			<polygon class="st1" points="1199.4,668.64 600,600 1200.58,657.48 			"/>
			<polygon class="st1" points="1200.58,542.52 600,600 1199.4,531.36 			"/>
			<polygon class="st1" points="1175.5,418.91 600,600 1172.03,408.23 			"/>
			<polygon class="st1" points="1125.27,303.21 600,600 1119.66,293.49 			"/>
			<polygon class="st1" points="1052.09,200.49 600,600 1044.58,192.15 			"/>
			<polygon class="st1" points="959.15,115.22 600,600 950.07,108.63 			"/>
			<polygon class="st1" points="850.51,51.15 600,600 840.25,46.58 			"/>
			<polygon class="st1" points="730.92,11.06 600,600 719.94,8.72 			"/>
		</g>
	</g>
</g>
</svg>
